<svg width="28" height="24" viewBox="0 0 28 24" fill="none" xmlns="http://www.w3.org/2000/svg">
<path d="M9.54254 18.2148H23.2183C23.6754 18.2148 24.0738 17.8398 24.0738 17.3359C24.0738 16.832 23.6754 16.457 23.2183 16.457H9.74176C9.07379 16.457 8.66364 15.9883 8.55817 15.2734L8.37067 14.043H23.2418C24.9527 14.043 25.8316 12.9883 26.0777 11.3125L27.0152 5.11328C27.0386 4.96094 27.0621 4.77344 27.0621 4.66797C27.0621 4.10547 26.6402 3.71875 25.9957 3.71875H6.85895L6.63629 2.23047C6.5191 1.32812 6.19098 0.871094 4.99567 0.871094H0.882385C0.413635 0.871094 0.0151978 1.28125 0.0151978 1.75C0.0151978 2.23047 0.413635 2.64062 0.882385 2.64062H4.84332L6.71832 15.5078C6.96442 17.1719 7.84332 18.2148 9.54254 18.2148ZM25.0699 5.48828L24.2379 11.1016C24.1441 11.8281 23.7574 12.2734 23.066 12.2734L8.11285 12.2852L7.11676 5.48828H25.0699ZM10.4683 23.9102C11.523 23.9102 12.3668 23.0781 12.3668 22.0117C12.3668 20.957 11.523 20.1133 10.4683 20.1133C9.40192 20.1133 8.55817 20.957 8.55817 22.0117C8.55817 23.0781 9.40192 23.9102 10.4683 23.9102ZM21.4254 23.9102C22.4918 23.9102 23.3355 23.0781 23.3355 22.0117C23.3355 20.957 22.4918 20.1133 21.4254 20.1133C20.3707 20.1133 19.5152 20.957 19.5152 22.0117C19.5152 23.0781 20.3707 23.9102 21.4254 23.9102Z" fill="#424242"/>
</svg>
