<svg width="22" height="22" viewBox="0 0 22 22" fill="none" xmlns="http://www.w3.org/2000/svg">
<path d="M21 1.66667V20.3333C21 20.7016 20.7016 21 20.3333 21H1.66667C1.29848 21 1 20.7016 1 20.3333V1.66667C1 1.29848 1.29848 1 1.66667 1H20.3333C20.7016 1 21 1.29848 21 1.66667Z" stroke="#424242" stroke-width="2" stroke-linecap="round" stroke-linejoin="round"/>
<path d="M1 15.4445L8.77778 12.1111L21 17.6667" stroke="#424242" stroke-width="2" stroke-linecap="round" stroke-linejoin="round"/>
<path d="M15.4444 8.77776C14.2171 8.77776 13.2222 7.78284 13.2222 6.55554C13.2222 5.32824 14.2171 4.33331 15.4444 4.33331C16.6718 4.33331 17.6667 5.32824 17.6667 6.55554C17.6667 7.78284 16.6718 8.77776 15.4444 8.77776Z" stroke="#424242" stroke-width="2" stroke-linecap="round" stroke-linejoin="round"/>
</svg>
