<svg width="22" height="22" viewBox="0 0 22 22" fill="none" xmlns="http://www.w3.org/2000/svg">
<path d="M11.02 10.8633C13.809 10.8633 16.0825 8.37891 16.0825 5.35547C16.0825 2.35547 13.8207 0 11.02 0C8.24261 0 5.95746 2.40234 5.95746 5.37891C5.96918 8.39062 8.2309 10.8633 11.02 10.8633ZM11.02 9.09375C9.30902 9.09375 7.84418 7.45312 7.84418 5.37891C7.84418 3.33984 9.28558 1.76953 11.02 1.76953C12.7661 1.76953 14.1957 3.31641 14.1957 5.35547C14.1957 7.42969 12.7426 9.09375 11.02 9.09375ZM3.64886 21.7031H18.3793C20.3246 21.7031 21.2504 21.1172 21.2504 19.8281C21.2504 16.7578 17.3715 12.3164 11.02 12.3164C4.65668 12.3164 0.777771 16.7578 0.777771 19.8281C0.777771 21.1172 1.70355 21.7031 3.64886 21.7031ZM3.09808 19.9336C2.7934 19.9336 2.66449 19.8516 2.66449 19.6055C2.66449 17.6836 5.64105 14.0859 11.02 14.0859C16.3871 14.0859 19.3637 17.6836 19.3637 19.6055C19.3637 19.8516 19.2465 19.9336 18.9418 19.9336H3.09808Z" fill="#424242"/>
</svg>
